<svg xmlns="http://www.w3.org/2000/svg" width="100" height="100" id="americanexpress"><path fill="#2c8cd0" fill-rule="evenodd" stroke="#000" stroke-linecap="round" stroke-linejoin="round" stroke-width=".8" d="M21.489 981.497h56.017a3.59 3.59 0 0 1 3.599 3.6v33.516a3.59 3.59 0 0 1-3.6 3.599H21.49a3.59 3.59 0 0 1-3.599-3.599v-33.517a3.59 3.59 0 0 1 3.599-3.599z" transform="translate(0 -952.362)"></path><g style="line-height:125%;-inkscape-font-specification:Sans Bold" fill="#5cc1ef" stroke="#fff" stroke-linecap="round" stroke-linejoin="round" stroke-width="2.711" font-family="Sans" font-size="9.476" font-weight="400" letter-spacing="0" word-spacing="0"><path d="M24.5 1106.997h-1.49l-.592-1.54h-2.712l-.56 1.54h-1.452l2.641-6.783h1.449zm-2.522-2.684-.935-2.517-.916 2.517zM25.212 1106.997v-6.783h2.05l1.23 4.627 1.217-4.627h2.055v6.783H30.49v-5.34l-1.346 5.34h-1.319l-1.342-5.34v5.34zM33.133 1106.997v-6.783h5.03v1.148h-3.66v1.503h3.405v1.143h-3.405v1.846h3.79v1.143zM39.467 1106.997v-6.783h2.883c.725 0 1.251.061 1.58.183.328.122.591.338.789.65.197.311.296.668.296 1.069 0 .509-.15.929-.449 1.26-.299.332-.746.541-1.342.627.296.173.54.363.734.57.193.206.452.573.78 1.1l.828 1.324h-1.638l-.99-1.476c-.352-.527-.593-.86-.722-.997a1.05 1.05 0 0 0-.412-.282c-.145-.051-.375-.076-.69-.076h-.277v2.831zm1.37-3.914h1.013c.657 0 1.067-.028 1.23-.083a.74.74 0 0 0 .385-.287.883.883 0 0 0 .139-.51c0-.227-.061-.412-.183-.552a.839.839 0 0 0-.516-.266c-.11-.015-.444-.023-1-.023h-1.068zM46.269 1106.997v-6.783h1.37v6.783zM53.278 1104.503l1.328.421c-.203.74-.542 1.29-1.015 1.65-.474.359-1.074.539-1.802.539-.901 0-1.641-.308-2.221-.923-.58-.616-.87-1.457-.87-2.524 0-1.13.291-2.006.874-2.63.583-.625 1.35-.938 2.3-.938.83 0 1.504.246 2.022.736.308.29.54.706.694 1.25l-1.356.323a1.438 1.438 0 0 0-.502-.833 1.438 1.438 0 0 0-.927-.305c-.503 0-.911.18-1.224.541-.313.361-.47.946-.47 1.754 0 .857.154 1.468.463 1.832.308.364.71.546 1.203.546.364 0 .677-.116.939-.347.262-.231.45-.595.564-1.092zM61.903 1106.997h-1.49l-.592-1.54H57.11l-.56 1.54h-1.453l2.642-6.783h1.448zm-2.522-2.684-.934-2.517-.916 2.517zM62.648 1106.997v-6.783h1.332l2.776 4.53v-4.53h1.273v6.783h-1.374l-2.735-4.423v4.423z" style="-inkscape-font-specification:Sans Bold" font-weight="700" transform="matrix(1.10676 0 0 .90354 0 -952.362)"></path></g><g style="line-height:125%;-inkscape-font-specification:Sans Bold" fill="#2c8cd0" font-family="Sans" font-size="9.476" font-weight="400" letter-spacing="0" word-spacing="0"><path d="M24.5 1106.997h-1.49l-.592-1.54h-2.712l-.56 1.54h-1.452l2.641-6.783h1.449zm-2.522-2.684-.935-2.517-.916 2.517zM25.212 1106.997v-6.783h2.05l1.23 4.627 1.217-4.627h2.055v6.783H30.49v-5.34l-1.346 5.34h-1.319l-1.342-5.34v5.34zM33.133 1106.997v-6.783h5.03v1.148h-3.66v1.503h3.405v1.143h-3.405v1.846h3.79v1.143zM39.467 1106.997v-6.783h2.883c.725 0 1.251.061 1.58.183.328.122.591.338.789.65.197.311.296.668.296 1.069 0 .509-.15.929-.449 1.26-.299.332-.746.541-1.342.627.296.173.54.363.734.57.193.206.452.573.78 1.1l.828 1.324h-1.638l-.99-1.476c-.352-.527-.593-.86-.722-.997a1.05 1.05 0 0 0-.412-.282c-.145-.051-.375-.076-.69-.076h-.277v2.831zm1.37-3.914h1.013c.657 0 1.067-.028 1.23-.083a.74.74 0 0 0 .385-.287.883.883 0 0 0 .139-.51c0-.227-.061-.412-.183-.552a.839.839 0 0 0-.516-.266c-.11-.015-.444-.023-1-.023h-1.068zM46.269 1106.997v-6.783h1.37v6.783zM53.278 1104.503l1.328.421c-.203.74-.542 1.29-1.015 1.65-.474.359-1.074.539-1.802.539-.901 0-1.641-.308-2.221-.923-.58-.616-.87-1.457-.87-2.524 0-1.13.291-2.006.874-2.63.583-.625 1.35-.938 2.3-.938.83 0 1.504.246 2.022.736.308.29.54.706.694 1.25l-1.356.323a1.438 1.438 0 0 0-.502-.833 1.438 1.438 0 0 0-.927-.305c-.503 0-.911.18-1.224.541-.313.361-.47.946-.47 1.754 0 .857.154 1.468.463 1.832.308.364.71.546 1.203.546.364 0 .677-.116.939-.347.262-.231.45-.595.564-1.092zM61.903 1106.997h-1.49l-.592-1.54H57.11l-.56 1.54h-1.453l2.642-6.783h1.448zm-2.522-2.684-.934-2.517-.916 2.517zM62.648 1106.997v-6.783h1.332l2.776 4.53v-4.53h1.273v6.783h-1.374l-2.735-4.423v4.423z" style="-inkscape-font-specification:Sans Bold" font-weight="700" transform="matrix(1.10676 0 0 .90354 0 -952.362)"></path></g><g style="line-height:125%;-inkscape-font-specification:Sans Bold" fill="#5cc1ef" stroke="#fff" stroke-linecap="round" stroke-linejoin="round" stroke-width="2.711" font-family="Sans" font-size="9.476" font-weight="400" letter-spacing="0" word-spacing="0"><path d="M28.483 1117.323v-6.783h5.03v1.148h-3.66v1.503h3.405v1.143h-3.406v1.846h3.79v1.143zM34.123 1117.323l2.318-3.54-2.1-3.243h1.6l1.36 2.18 1.333-2.18h1.587l-2.11 3.294 2.318 3.49h-1.651l-1.504-2.347-1.509 2.346zM41.142 1117.323v-6.783h2.198c.832 0 1.375.034 1.628.102.389.102.714.323.976.664.263.34.394.781.394 1.32 0 .417-.076.767-.227 1.051a1.86 1.86 0 0 1-.576.669c-.233.162-.47.269-.71.321-.327.065-.8.097-1.42.097h-.894v2.559zm1.37-5.635v1.924h.749c.54 0 .9-.035 1.083-.106a.9.9 0 0 0 .428-.333.912.912 0 0 0 .155-.528.876.876 0 0 0-.218-.61.948.948 0 0 0-.55-.301c-.164-.031-.492-.046-.986-.046zM47.476 1117.323v-6.783h2.882c.725 0 1.252.061 1.58.183.33.122.592.339.79.65.197.312.296.668.296 1.069 0 .509-.15.929-.45 1.26-.298.332-.746.541-1.341.628.296.172.54.362.733.569.193.206.453.573.78 1.1l.828 1.324h-1.638l-.99-1.476c-.352-.527-.592-.86-.722-.997a1.05 1.05 0 0 0-.411-.282c-.145-.051-.375-.076-.69-.076h-.277v2.831zm1.37-3.914h1.013c.657 0 1.067-.028 1.23-.083a.735.735 0 0 0 .385-.287.883.883 0 0 0 .138-.509c0-.228-.06-.412-.182-.553a.839.839 0 0 0-.516-.266c-.111-.015-.444-.023-1-.023h-1.068zM54.32 1117.323v-6.783h5.028v1.148h-3.66v1.503h3.406v1.143h-3.405v1.846h3.789v1.143zM60.302 1115.116l1.332-.13c.08.448.243.776.488.986.245.21.576.315.993.315.44 0 .773-.093.997-.28.223-.187.335-.405.335-.655a.618.618 0 0 0-.14-.41c-.095-.112-.26-.21-.494-.293-.16-.055-.526-.154-1.096-.296-.734-.182-1.25-.406-1.546-.671-.416-.373-.624-.828-.624-1.365 0-.346.098-.669.294-.97.195-.3.478-.53.846-.687.369-.157.814-.236 1.335-.236.851 0 1.492.187 1.923.56.43.374.656.872.677 1.495l-1.37.06c-.058-.349-.183-.6-.376-.752-.193-.153-.482-.23-.868-.23-.398 0-.71.083-.934.246a.494.494 0 0 0-.218.421c0 .16.068.298.204.412.172.145.592.296 1.258.453.667.158 1.16.32 1.479.488.319.169.569.398.75.69.18.291.27.651.27 1.08a1.998 1.998 0 0 1-1.24 1.849c-.395.165-.887.247-1.476.247-.858 0-1.516-.198-1.976-.594-.46-.397-.734-.974-.823-1.733zM66.631 1115.116l1.333-.13c.08.448.243.776.488.986.245.21.576.315.992.315.441 0 .774-.093.997-.28.224-.187.336-.405.336-.655a.618.618 0 0 0-.141-.41c-.094-.112-.259-.21-.493-.293-.16-.055-.526-.154-1.097-.296-.734-.182-1.249-.406-1.545-.671-.417-.373-.625-.828-.625-1.365 0-.346.098-.669.294-.97.196-.3.478-.53.847-.687.368-.157.813-.236 1.335-.236.851 0 1.492.187 1.922.56.43.374.656.872.678 1.495l-1.37.06c-.058-.349-.184-.6-.377-.752-.192-.153-.482-.23-.867-.23-.398 0-.71.083-.935.246a.494.494 0 0 0-.217.421c0 .16.068.298.203.412.173.145.592.296 1.259.453.666.158 1.159.32 1.478.488.32.169.57.398.75.69.18.291.27.651.27 1.08a1.998 1.998 0 0 1-1.24 1.849c-.395.165-.887.247-1.476.247-.857 0-1.516-.198-1.975-.594-.46-.397-.734-.974-.824-1.733z" style="-inkscape-font-specification:Sans Bold" font-weight="700" transform="matrix(1.10676 0 0 .90354 0 -952.362)"></path></g><g style="line-height:125%;-inkscape-font-specification:Sans Bold" fill="#2c8cd0" font-family="Sans" font-size="9.476" font-weight="400" letter-spacing="0" word-spacing="0"><path d="M28.483 1117.323v-6.783h5.03v1.148h-3.66v1.503h3.405v1.143h-3.406v1.846h3.79v1.143zM34.123 1117.323l2.318-3.54-2.1-3.243h1.6l1.36 2.18 1.333-2.18h1.587l-2.11 3.294 2.318 3.49h-1.651l-1.504-2.347-1.509 2.346zM41.142 1117.323v-6.783h2.198c.832 0 1.375.034 1.628.102.389.102.714.323.976.664.263.34.394.781.394 1.32 0 .417-.076.767-.227 1.051a1.86 1.86 0 0 1-.576.669c-.233.162-.47.269-.71.321-.327.065-.8.097-1.42.097h-.894v2.559zm1.37-5.635v1.924h.749c.54 0 .9-.035 1.083-.106a.9.9 0 0 0 .428-.333.912.912 0 0 0 .155-.528.876.876 0 0 0-.218-.61.948.948 0 0 0-.55-.301c-.164-.031-.492-.046-.986-.046zM47.476 1117.323v-6.783h2.882c.725 0 1.252.061 1.58.183.33.122.592.339.79.65.197.312.296.668.296 1.069 0 .509-.15.929-.45 1.26-.298.332-.746.541-1.341.628.296.172.54.362.733.569.193.206.453.573.78 1.1l.828 1.324h-1.638l-.99-1.476c-.352-.527-.592-.86-.722-.997a1.05 1.05 0 0 0-.411-.282c-.145-.051-.375-.076-.69-.076h-.277v2.831zm1.37-3.914h1.013c.657 0 1.067-.028 1.23-.083a.735.735 0 0 0 .385-.287.883.883 0 0 0 .138-.509c0-.228-.06-.412-.182-.553a.839.839 0 0 0-.516-.266c-.111-.015-.444-.023-1-.023h-1.068zM54.32 1117.323v-6.783h5.028v1.148h-3.66v1.503h3.406v1.143h-3.405v1.846h3.789v1.143zM60.302 1115.116l1.332-.13c.08.448.243.776.488.986.245.21.576.315.993.315.44 0 .773-.093.997-.28.223-.187.335-.405.335-.655a.618.618 0 0 0-.14-.41c-.095-.112-.26-.21-.494-.293-.16-.055-.526-.154-1.096-.296-.734-.182-1.25-.406-1.546-.671-.416-.373-.624-.828-.624-1.365 0-.346.098-.669.294-.97.195-.3.478-.53.846-.687.369-.157.814-.236 1.335-.236.851 0 1.492.187 1.923.56.43.374.656.872.677 1.495l-1.37.06c-.058-.349-.183-.6-.376-.752-.193-.153-.482-.23-.868-.23-.398 0-.71.083-.934.246a.494.494 0 0 0-.218.421c0 .16.068.298.204.412.172.145.592.296 1.258.453.667.158 1.16.32 1.479.488.319.169.569.398.75.69.18.291.27.651.27 1.08a1.998 1.998 0 0 1-1.24 1.849c-.395.165-.887.247-1.476.247-.858 0-1.516-.198-1.976-.594-.46-.397-.734-.974-.823-1.733zM66.631 1115.116l1.333-.13c.08.448.243.776.488.986.245.21.576.315.992.315.441 0 .774-.093.997-.28.224-.187.336-.405.336-.655a.618.618 0 0 0-.141-.41c-.094-.112-.259-.21-.493-.293-.16-.055-.526-.154-1.097-.296-.734-.182-1.249-.406-1.545-.671-.417-.373-.625-.828-.625-1.365 0-.346.098-.669.294-.97.196-.3.478-.53.847-.687.368-.157.813-.236 1.335-.236.851 0 1.492.187 1.922.56.43.374.656.872.678 1.495l-1.37.06c-.058-.349-.184-.6-.377-.752-.192-.153-.482-.23-.867-.23-.398 0-.71.083-.935.246a.494.494 0 0 0-.217.421c0 .16.068.298.203.412.173.145.592.296 1.259.453.666.158 1.159.32 1.478.488.32.169.57.398.75.69.18.291.27.651.27 1.08a1.998 1.998 0 0 1-1.24 1.849c-.395.165-.887.247-1.476.247-.857 0-1.516-.198-1.975-.594-.46-.397-.734-.974-.824-1.733z" style="-inkscape-font-specification:Sans Bold" font-weight="700" transform="matrix(1.10676 0 0 .90354 0 -952.362)"></path></g></svg>