<svg xmlns="http://www.w3.org/2000/svg" width="100" height="100" id="googlewallet"><g transform="translate(95.305 -286.068)"><rect width="63.214" height="40.714" x="-73.879" y="317.729" fill="#f9f9f9" fill-rule="evenodd" stroke="#000" stroke-linecap="round" stroke-linejoin="round" stroke-width=".8" rx="3.599" ry="3.599"></rect><path fill="#265697" d="M-47.685 336.486c-1.965-2.758-4.702-5.173-7.802-6.863a3.223 3.223 0 0 0-1.536-.392c-1.209 0-2.31.67-2.88 1.752-.848 1.615-.249 3.628 1.337 4.493 4.785 2.605 7.87 7.574 8.233 13.316v-.014a3.505 3.505 0 0 1 .48-2.128 16.246 16.246 0 0 0 2.28-8.324c0-.618-.042-1.23-.112-1.84"></path><path fill="#dfac16" d="M-38.136 350.338a27.594 27.594 0 0 0 2.79-12.156c0-1.462-.103-2.528-.181-3.203-2.432-3.79-5.96-7.18-10.09-9.66.004.001.096.062.103.066.286.2.527.411.778.729.061.078.146.188.217.303a22.277 22.277 0 0 1 3.312 13.249 22.874 22.874 0 0 1 2.726 10.888c0 .31.005.809-.002 1.173a3.788 3.788 0 0 1 .347-1.389"></path><path fill="#27ae60" d="M-29.388 330.338a35.755 35.755 0 0 0-2.54-7.356 3.615 3.615 0 0 0-3.25-2.065c-.535 0-1.055.118-1.542.352-1.79.857-2.553 3.027-1.702 4.823a28.387 28.387 0 0 1 2.73 12.224c0 4.253-.908 8.344-2.7 12.155-.026.058-.34.733-.34 1.513-.003.219.023.546.092.838a3.6 3.6 0 0 0 1.963 2.469c.487.23 1.002.348 1.535.348 1.312 0 2.527-.73 3.153-1.877.718-1.356 1.443-3.136 2.074-5.428a36.149 36.149 0 0 0 1.415-10.018 36.45 36.45 0 0 0-.888-7.978"></path><path fill="#bf3126" d="M-44.036 326.49a3.394 3.394 0 0 0-.214-.303 3.503 3.503 0 0 0-2.749-1.357c-.558 0-.844.067-1.246.226-.412.163-.85.385-1.245.799a3.62 3.62 0 0 0-.793 1.264c-.33.875-.29 2.025.287 2.945 1.215 1.934 1.93 4.127 2.191 6.386.07.601.114 1.207.114 1.817 0 2.906-.8 5.749-2.314 8.218-.053.087-.1.176-.144.264a3.44 3.44 0 0 0 2.11 4.824 3.468 3.468 0 0 0 3.99-1.507 22.552 22.552 0 0 0 3.323-11.8 22.57 22.57 0 0 0-3.31-11.775"></path></g></svg>